<?xml version="1.0" encoding="UTF-8" standalone="no"?>
<svg xmlns:dc="http://purl.org/dc/elements/1.1/" xmlns:cc="http://creativecommons.org/ns#" xmlns:rdf="http://www.w3.org/1999/02/22-rdf-syntax-ns#" xmlns:svg="http://www.w3.org/2000/svg" xmlns="http://www.w3.org/2000/svg" version="1.1" id="svg20675" viewBox="0 0 41.348941 41.215849" height="11.632029mm" width="11.66959mm">
  <title id="title21229">NFC Logo</title>
  <defs id="defs20677"/>
  <metadata id="metadata20680">
    <rdf:RDF>
      <cc:Work rdf:about="">
        <dc:format>image/svg+xml</dc:format>
        <dc:type rdf:resource="http://purl.org/dc/dcmitype/StillImage"/>
        <dc:title>NFC Logo</dc:title>
      </cc:Work>
    </rdf:RDF>
  </metadata>
  <g transform="translate(437.81733,-188.89713)" id="layer1">
    <path d="m -396.54072,192.24331 c -0.10625,-1.69125 -1.405,-2.97125 -3.12625,-3.0725 -1.8975,-0.1125 -8.04,-0.2075 -9.80875,-0.2075 3.1575,2.17625 3.58875,6.27875 3.88625,13.89625 0.17375,4.51375 0.0175,20.32875 0.005,21.00125 l -0.0825,4.3125 -16.58875,-16.5925 0,-5.19125 13.18875,13.19375 c 0.0375,-2.6125 0.0687,-6.01625 0.0687,-9.13 0,-3.0325 -0.0425,-5.7775 -0.13,-7.22375 -0.4975,-8.30375 -1.27,-12.1925 -5.605,-13.71875 -1.32375,-0.46625 -2.56,-0.57625 -4.62,-0.60375 -1.70375,-0.0225 -13.55625,-0.0113 -15.27,0.0813 -1.8175,0.0962 -3.03875,1.41625 -3.1225,3.12 -0.0825,1.68 -0.1075,33.0325 0,34.74 0.10875,1.69 1.405,2.97125 3.1225,3.0725 1.9025,0.11375 8.04375,0.1275 9.81,0.1275 -3.15625,-2.17875 -3.58625,-6.27625 -3.88625,-13.89625 -0.17125,-4.51125 -0.0125,-20.33 -10e-4,-21 l 0.0825,-4.3125 16.59,16.59125 0,5.19 -13.1925,-13.1925 c -0.0337,2.61125 -0.0675,6.0175 -0.0675,9.12875 0,3.035 0.045,5.78125 0.13,7.225 0.4975,8.3025 1.27,12.19125 5.60375,13.7175 1.32625,0.4675 2.56375,0.5775 4.6225,0.605 1.7,0.0188 13.5575,0.0113 15.265,-0.0788 1.82125,-0.1 3.0425,-1.41875 3.12625,-3.12125 0.0813,-1.6825 0.11,-32.95375 0,-34.66125" style="fill:#1b395b;fill-opacity:1;fill-rule:nonzero;stroke:none" id="path18064"/>
  </g>
</svg>